<?xml version="1.0" encoding="UTF-8" standalone="no"?>
<svg
   xmlns:dc="http://purl.org/dc/elements/1.1/"
   xmlns:cc="http://creativecommons.org/ns#"
   xmlns:rdf="http://www.w3.org/1999/02/22-rdf-syntax-ns#"
   xmlns:svg="http://www.w3.org/2000/svg"
   xmlns="http://www.w3.org/2000/svg"
   xmlns:sodipodi="http://sodipodi.sourceforge.net/DTD/sodipodi-0.dtd"
   xmlns:inkscape="http://www.inkscape.org/namespaces/inkscape"
   enable-background="new 0 0 128 128"
   height="128"
   id="Layer_1"
   version="1.1"
   viewBox="0 0 128 128"
   width="128"
   xml:space="preserve"
   sodipodi:docname="favicon.svg"
   inkscape:version="1.0.2 (1.0.2+r75+1)"
   inkscape:export-filename="/home/raman/Documents/chat-app-client/public/favicon.png"
   inkscape:export-xdpi="95.25"
   inkscape:export-ydpi="95.25"><metadata
     id="metadata19"><rdf:RDF><cc:Work
         rdf:about=""><dc:format>image/svg+xml</dc:format><dc:type
           rdf:resource="http://purl.org/dc/dcmitype/StillImage" /><dc:title></dc:title></cc:Work></rdf:RDF></metadata><defs
     id="defs17" /><sodipodi:namedview
     pagecolor="#ffffff"
     bordercolor="#666666"
     borderopacity="1"
     objecttolerance="10"
     gridtolerance="10"
     guidetolerance="10"
     inkscape:pageopacity="0"
     inkscape:pageshadow="2"
     inkscape:window-width="1294"
     inkscape:window-height="704"
     id="namedview15"
     showgrid="false"
     inkscape:showpageshadow="false"
     inkscape:zoom="3.4250485"
     inkscape:cx="68.583376"
     inkscape:cy="68.93037"
     inkscape:window-x="72"
     inkscape:window-y="27"
     inkscape:window-maximized="1"
     inkscape:current-layer="Layer_1"
     inkscape:document-rotation="0" /><rect
     style="fill:#8794eb;fill-opacity:1;stroke:none;stroke-width:1.25836"
     id="rect846"
     width="128"
     height="128"
     x="0"
     y="0" /><g
     id="g4"
     style="fill:#fffffe;fill-opacity:1;stroke:none;stroke-opacity:1"
     transform="matrix(0.51075713,0,0,0.51075713,31.311544,31.311544)"><path
       d="M 112,0 H 16 C 7.164,0 0,7.164 0,16 v 64 c 0,8.836 7.164,16 16,16 h 24 l 32,32 V 96 h 40 c 8.836,0 16,-7.164 16,-16 V 16 C 128,7.164 120.836,0 112,0 Z m 8,80 c 0,4.414 -3.59,8 -8,8 H 64 v 20.688 L 43.313,88 H 16 C 11.59,88 8,84.414 8,80 V 16 c 0,-4.414 3.59,-8 8,-8 h 96 c 4.41,0 8,3.586 8,8 z"
       fill="#546e7a"
       id="path2"
       style="fill:#fffffe;fill-opacity:1;stroke:none;stroke-opacity:1" /></g></svg>
