<?xml version="1.0" encoding="UTF-8" standalone="no"?>
<svg
   xmlns:dc="http://purl.org/dc/elements/1.1/"
   xmlns:cc="http://creativecommons.org/ns#"
   xmlns:rdf="http://www.w3.org/1999/02/22-rdf-syntax-ns#"
   xmlns:svg="http://www.w3.org/2000/svg"
   xmlns="http://www.w3.org/2000/svg"
   xmlns:sodipodi="http://sodipodi.sourceforge.net/DTD/sodipodi-0.dtd"
   xmlns:inkscape="http://www.inkscape.org/namespaces/inkscape"
   enable-background="new 0 0 32 32"
   height="32px"
   id="Layer_1"
   version="1.1"
   viewBox="0 0 32 32"
   width="32px"
   xml:space="preserve"
   sodipodi:docname="iconfinder_send-01_186386.svg"
   inkscape:version="1.0.2 (1.0.2+r75+1)"><metadata
     id="metadata17"><rdf:RDF><cc:Work
         rdf:about=""><dc:format>image/svg+xml</dc:format><dc:type
           rdf:resource="http://purl.org/dc/dcmitype/StillImage" /></cc:Work></rdf:RDF></metadata><defs
     id="defs15" /><sodipodi:namedview
     pagecolor="#ffffff"
     bordercolor="#666666"
     borderopacity="1"
     objecttolerance="10"
     gridtolerance="10"
     guidetolerance="10"
     inkscape:pageopacity="0"
     inkscape:pageshadow="2"
     inkscape:window-width="1294"
     inkscape:window-height="704"
     id="namedview13"
     showgrid="false"
     inkscape:zoom="9.6875"
     inkscape:cx="17.31458"
     inkscape:cy="17.67821"
     inkscape:window-x="72"
     inkscape:window-y="27"
     inkscape:window-maximized="1"
     inkscape:current-layer="Layer_1" /><g
     id="g10"
     style="fill:#7582d6;fill-opacity:1"><g
       id="g4"
       style="fill:#7582d6;fill-opacity:1"><path
         d="M1.911,16.179c-1.084,0.568-1.039,1.4,0.098,1.852l3.364,1.331c1.137,0.449,2.856,0.204,3.821-0.55    L23.806,7.289c0.961-0.757,1.064-0.645,0.229,0.249L12.483,19.902c-0.837,0.892-0.59,1.984,0.55,2.425l0.394,0.154    c1.14,0.44,3,1.182,4.132,1.642l3.732,1.521c1.133,0.46,2.06,0.842,2.062,0.849c0.001,0.007,0.006,0.028,0.012,0.03    s0.273-0.962,0.594-2.141l5.688-20.908c0.321-1.18-0.302-1.681-1.385-1.113L1.911,16.179z"
         fill="#515151"
         id="path2"
         style="fill:#7582d6;fill-opacity:1" /></g><g
       id="g8"
       style="fill:#7582d6;fill-opacity:1"><path
         d="M11.146,29.864c-0.067,0.199,2.301-3.429,2.301-3.429c0.669-1.022,0.29-2.241-0.842-2.703l-2.582-1.058    c-1.132-0.463-1.674,0.08-1.205,1.212C8.818,23.887,11.214,29.66,11.146,29.864z"
         fill="#515151"
         id="path6"
         style="fill:#7582d6;fill-opacity:1" /></g></g></svg>
