<?xml version="1.0" encoding="UTF-8" standalone="no"?>
<svg
   xmlns:dc="http://purl.org/dc/elements/1.1/"
   xmlns:cc="http://creativecommons.org/ns#"
   xmlns:rdf="http://www.w3.org/1999/02/22-rdf-syntax-ns#"
   xmlns:svg="http://www.w3.org/2000/svg"
   xmlns="http://www.w3.org/2000/svg"
   xmlns:sodipodi="http://sodipodi.sourceforge.net/DTD/sodipodi-0.dtd"
   xmlns:inkscape="http://www.inkscape.org/namespaces/inkscape"
   height="32px"
   style="enable-background:new 0 0 32 32;"
   version="1.1"
   viewBox="0 0 32 32"
   width="32px"
   xml:space="preserve"
   id="svg10"
   sodipodi:docname="spinner.svg"
   inkscape:version="1.0.2 (1.0.2+r75+1)"><metadata
     id="metadata16"><rdf:RDF><cc:Work
         rdf:about=""><dc:format>image/svg+xml</dc:format><dc:type
           rdf:resource="http://purl.org/dc/dcmitype/StillImage" /></cc:Work></rdf:RDF></metadata><defs
     id="defs14" /><sodipodi:namedview
     pagecolor="#ffffff"
     bordercolor="#666666"
     borderopacity="1"
     objecttolerance="10"
     gridtolerance="10"
     guidetolerance="10"
     inkscape:pageopacity="0"
     inkscape:pageshadow="2"
     inkscape:window-width="1294"
     inkscape:window-height="704"
     id="namedview12"
     showgrid="false"
     inkscape:zoom="13.700194"
     inkscape:cx="15.820248"
     inkscape:cy="18.437287"
     inkscape:window-x="72"
     inkscape:window-y="27"
     inkscape:window-maximized="1"
     inkscape:current-layer="svg10" /><g
     id="Layer_1" /><g
     id="spin_x5F_alt"
     style="fill:#000000;fill-opacity:1"><g
       id="g7"
       style="fill:#000000;fill-opacity:1"><path
         d="M4.691,27.32C1.664,24.297,0,20.281,0,16C0,7.18,7.176,0,16,0l2,2l-2,2C9.383,4,4,9.383,4,16    c0,3.211,1.25,6.227,3.52,8.492l-2.457,0.32L4.691,27.32L4.691,27.32z"
         style="fill:#000000;fill-opacity:1"
         id="path3" /><path
         d="M16,32l-2-1.992L16,28c6.617,0,12-5.383,12-12c0-3.203-1.25-6.219-3.523-8.488l2.461-0.324    l0.367-2.504C30.332,7.707,32,11.727,32,16C32,24.82,24.82,32,16,32L16,32z"
         style="fill:#000000;fill-opacity:1"
         id="path5" /></g></g></svg>
